<svg width="32" height="32" viewBox="0 0 32 32" fill="none" xmlns="http://www.w3.org/2000/svg">
  <!-- Background circle -->
  <circle cx="16" cy="16" r="14" fill="#6366F1" fill-opacity="0.2"/>

  <!-- Rocket ship body -->
  <path d="M16 4C16 4 12 10 12 16C12 18.5 13.5 20.5 16 22C18.5 20.5 20 18.5 20 16C20 10 16 4 16 4Z" fill="#6366F1"/>

  <!-- Rocket window -->
  <circle cx="16" cy="14" r="2.5" fill="#FFFFFF"/>

  <!-- Rocket fins -->
  <path d="M12 16L9 20L11 18L12 16Z" fill="#4F46E5"/>
  <path d="M20 16L23 20L21 18L20 16Z" fill="#4F46E5"/>

  <!-- Rocket flame -->
  <path d="M16 22C14.5 23.5 14 26 16 28C18 26 17.5 23.5 16 22Z" fill="#F59E0B"/>

  <!-- Document icon behind rocket -->
  <rect x="18" y="18" width="8" height="10" rx="1" fill="#10B981" fill-opacity="0.8"/>
  <line x1="20" y1="21" x2="24" y2="21" stroke="white" stroke-width="1" stroke-linecap="round"/>
  <line x1="20" y1="23.5" x2="24" y2="23.5" stroke="white" stroke-width="1" stroke-linecap="round"/>
  <line x1="20" y1="26" x2="23" y2="26" stroke="white" stroke-width="1" stroke-linecap="round"/>
</svg>
